<svg xmlns="http://www.w3.org/2000/svg" viewBox="0 0 32 32" width="32" height="32">
  <circle cx="16" cy="16" r="14" fill="#121318" />
  
  <circle cx="16" cy="16" r="13" fill="none" stroke="#ff4d4d" stroke-width="1.5" opacity="0.85" />

  <g transform="translate(1, 0)">
    <path d="M 6 9 L 12 9 L 12 11 L 8.5 11 L 8.5 14 L 11 14 L 11 16 L 8.5 16 L 8.5 23 L 6 23 Z" fill="#ff4d4d" />
    
    <path d="M 12.5 9 L 18.5 9 L 18.5 11 L 15 11 L 15 14 L 17.5 14 L 17.5 16 L 15 16 L 15 23 L 12.5 23 Z" fill="#ffa61a" />
    
    <path d="M 19 9 L 25 9 L 25 11 L 21.5 11 L 21.5 14 L 24 14 L 24 16 L 21.5 16 L 21.5 23 L 19 23 Z" fill="#ffb84d" />
  </g>
</svg>
